<?xml version="1.0" encoding="UTF-8" standalone="no"?>
<!-- Generator: Adobe Illustrator 15.0.2, SVG Export Plug-In . SVG Version: 6.00 Build 0)  -->

<svg
   xmlns:dc="http://purl.org/dc/elements/1.1/"
   xmlns:cc="http://creativecommons.org/ns#"
   xmlns:rdf="http://www.w3.org/1999/02/22-rdf-syntax-ns#"
   xmlns:svg="http://www.w3.org/2000/svg"
   xmlns="http://www.w3.org/2000/svg"
   xmlns:sodipodi="http://sodipodi.sourceforge.net/DTD/sodipodi-0.dtd"
   xmlns:inkscape="http://www.inkscape.org/namespaces/inkscape"
   version="1.1"
   id="Layer_1"
   x="0px"
   y="0px"
   width="132"
   height="131.99998"
   viewBox="0 0 131.99999 131.99998"
   xml:space="preserve"
   inkscape:version="0.48.2 r9819"
   sodipodi:docname="naginata-icon.svg"
   inkscape:export-filename="E:\github\naginata.fi\source\naginata-icon.png"
   inkscape:export-xdpi="10.909091"
   inkscape:export-ydpi="10.909091"><metadata
   id="metadata13"><rdf:RDF><cc:Work
       rdf:about=""><dc:format>image/svg+xml</dc:format><dc:type
         rdf:resource="http://purl.org/dc/dcmitype/StillImage" /><dc:title></dc:title></cc:Work></rdf:RDF></metadata><defs
   id="defs11" /><sodipodi:namedview
   pagecolor="#ffffff"
   bordercolor="#666666"
   borderopacity="1"
   objecttolerance="10"
   gridtolerance="10"
   guidetolerance="10"
   inkscape:pageopacity="0"
   inkscape:pageshadow="2"
   inkscape:window-width="1037"
   inkscape:window-height="561"
   id="namedview9"
   showgrid="false"
   inkscape:zoom="0.79286936"
   inkscape:cx="22.900117"
   inkscape:cy="76.812709"
   inkscape:window-x="543"
   inkscape:window-y="311"
   inkscape:window-maximized="0"
   inkscape:current-layer="Layer_1"
   fit-margin-top="0"
   fit-margin-left="0"
   fit-margin-right="0"
   fit-margin-bottom="0" />



<path
   sodipodi:type="arc"
   id="path3091"
   sodipodi:cx="326.85666"
   sodipodi:cy="440.56534"
   sodipodi:rx="57.523205"
   sodipodi:ry="52.618126"
   d="m 384.37986,440.56534 a 57.523205,52.618126 0 1 1 -115.04641,0 57.523205,52.618126 0 1 1 115.04641,0 z"
   transform="matrix(1.147363,0,0,1.2543205,-309.02324,-486.61014)"
   style="fill:#072434;fill-opacity:1" /><g
   id="g3086"
   transform="matrix(1.6233109,0,0,1.6022991,-274.45709,-578.38317)"
   style="fill:#ffffff"><path
     inkscape:connector-curvature="0"
     id="path3"
     d="m 189,364.89 c 4.85022,-0.25104 5.23437,5.71818 6.24762,9.16282 3.19983,4.03339 6.43769,-1.71317 8.01593,-4.24628 4.90565,-2.07885 7.51742,5.46299 4.61986,8.76434 -2.41668,3.69768 -7.14216,2.00692 -10.6817,3.16756 -5.25103,1.52638 -1.70797,6.97862 2.05581,7.81718 2.94341,1.93949 2.78538,5.93632 3.41341,9.07117 0.14861,3.09226 0.0334,6.49611 -1.49323,9.22589 -4.14294,3.80322 -7.1023,-3.59454 -5.14613,-6.88035 0.83477,-3.63608 -3.88961,-7.64591 -5.43006,-2.7832 -2.26281,5.0296 0.076,11.18368 4.13923,14.55513 2.39193,1.59889 9.632,0.51759 7.37121,5.04747 -2.46134,2.50026 -7.10202,5.41791 -5.2048,9.55949 2.89124,2.89639 3.92337,8.42303 0.28279,11.18622 -5.62804,2.0442 -5.62528,-6.35456 -5.43867,-10.01869 0.44889,-3.55099 -1.60895,-10.44208 -6.30012,-7.86438 -2.95894,3.27386 -0.9927,7.99189 -2.22023,11.83647 0.7778,4.2153 -5.67885,9.22541 -6.85497,3.28936 -0.51972,-4.32461 1.3211,-8.56305 0.75887,-12.91823 -0.0583,-3.14861 -6.15476,-9.12018 0.0668,-9.6248 4.34215,-0.37889 9.4009,-3.44123 9.10812,-8.34392 -0.14847,-3.05028 0.0272,-6.55808 -2.34082,-8.94005 -4.46017,-3.48426 -6.48723,3.58757 -4.51791,6.83483 2.15804,3.95217 -3.76278,9.69654 -6.30104,4.67569 -1.58006,-3.47955 -0.63966,-7.33188 -0.63415,-10.96311 0.98886,-5.21239 5.66643,-8.552 10.02613,-10.93328 3.75648,-3.22134 -3.95406,-3.76237 -5.68462,-5.34337 -3.97889,-1.49585 -6.60481,-8.16604 -1.97395,-10.47919 5.25838,-2.29427 5.32492,6.74235 10.63313,5.41114 5.00506,-0.80598 2.64481,-7.00383 3.48353,-10.26591 z"
     style="fill:#ffffff;fill-rule:evenodd" /><path
     inkscape:connector-curvature="0"
     id="path5"
     d="m 226,364.89 c 4.80973,-0.15192 5.17435,5.62668 6.50535,8.98572 3.15507,4.60511 6.00245,-2.94282 8.79232,-4.28949 4.04195,-1.39719 5.78224,3.99336 4.18252,6.97464 -1.38416,4.03687 -5.74992,6.14781 -9.84075,5.9215 -6.57071,0.23296 -13.61752,1.67189 -19.73051,-1.58707 -3.62612,-1.57341 -6.32881,-6.05423 -4.68292,-9.8916 4.01425,-4.0342 7.13944,3.75469 11.27933,3.68362 4.74704,-0.87074 1.10183,-7.07 3.49466,-9.79732 z"
     style="fill:#ffffff;fill-rule:evenodd" /><path
     inkscape:connector-curvature="0"
     id="path7"
     d="m 245,382.89 c 4.34973,7.01163 0.30003,17.78656 -7.87383,19.67562 -2.72184,-1.12579 -8.85345,1.6311 -4.15328,4.08735 3.3691,1.33044 7.30847,-0.81079 10.46301,1.23417 3.39881,3.51419 -2.76391,6.62876 -5.96724,5.39106 -2.91474,-0.96507 -9.39264,-0.18946 -6.46094,4.12522 2.99335,4.1528 8.14133,-0.0217 11.96697,2.19883 4.10064,3.11591 -1.68733,7.04686 -5.12221,5.42087 -3.39957,-2.04896 -9.58805,0.58911 -6.5693,4.91231 3.26386,2.618 7.79934,-0.72793 11.49968,1.14683 4.94098,2.45311 -0.67187,7.23946 -4.35664,5.93291 -10.18686,0.56241 -20.62972,-1.45474 -30.60539,1.43836 -4.93293,-5.83005 -3.51511,-14.00685 -2.50445,-20.93332 0.99107,-5.14936 -1.90964,-10.56955 0.23045,-15.53141 2.91453,-5.0429 9.28823,-5.52608 14.02264,-7.88148 2.34407,-4.32153 -4.95891,-3.23382 -7.65706,-3.37746 -3.7616,1.08411 -7.40443,-3.68691 -2.83764,-5.48987 4.59084,-2.06386 9.80479,-0.7744 14.60492,-0.34889 5.47415,0.77764 11.20076,1.07219 16.47441,-0.87779 1.61878,-0.35928 3.23097,-0.74728 4.8459,-1.12331 z m -16,13 c 2.94841,2.49789 10.23363,0.002 8.38568,-4.30971 C 234.7104,388.01362 226.83347,391.17024 229,395.89 z m -18,11 c 4,0 8,0 12,0 2.13186,-4.17471 -3.75516,-6.80065 -7.07572,-5.34616 -2.14204,1.11769 -4.96598,2.50961 -4.92428,5.34616 z m 0,12 c 4,0 8,0 12,0 2.39164,-4.97482 -4.87663,-7.87184 -8.7922,-6.51089 -2.8445,0.56855 -5.31784,3.83473 -3.2078,6.51089 z m 0,12 c 4,0 8,0 12,0 2.39164,-4.97482 -4.87663,-7.87184 -8.7922,-6.51089 -2.8445,0.56855 -5.31784,3.83473 -3.2078,6.51089 z"
     style="fill:#ffffff;fill-rule:evenodd" /></g></svg>