<?xml version="1.0" encoding="UTF-8" standalone="no"?>
<svg
   xmlns:dc="http://purl.org/dc/elements/1.1/"
   xmlns:cc="http://creativecommons.org/ns#"
   xmlns:rdf="http://www.w3.org/1999/02/22-rdf-syntax-ns#"
   xmlns:svg="http://www.w3.org/2000/svg"
   xmlns="http://www.w3.org/2000/svg"
   xmlns:sodipodi="http://sodipodi.sourceforge.net/DTD/sodipodi-0.dtd"
   xmlns:inkscape="http://www.inkscape.org/namespaces/inkscape"
   version="1.1"
   id="Layer_1"
   x="0px"
   y="0px"
   width="132"
   height="131.99998"
   viewBox="0 0 131.99999 131.99998"
   xml:space="preserve"
   inkscape:version="0.48.2 r9819"
   sodipodi:docname="naginata-icon.svg"
   inkscape:export-filename="D:\checkouts-external\paazmaya-github\naginata.fi\favicon.png"
   inkscape:export-xdpi="10.909092"
   inkscape:export-ydpi="10.909092"><metadata
   id="metadata13"><rdf:RDF><cc:Work
       rdf:about=""><dc:format>image/svg+xml</dc:format><dc:type
         rdf:resource="http://purl.org/dc/dcmitype/StillImage" /><dc:title></dc:title></cc:Work></rdf:RDF></metadata><defs
   id="defs11" /><sodipodi:namedview
   pagecolor="#ffffff"
   bordercolor="#666666"
   borderopacity="1"
   objecttolerance="10"
   gridtolerance="10"
   guidetolerance="10"
   inkscape:pageopacity="0"
   inkscape:pageshadow="2"
   inkscape:window-width="914"
   inkscape:window-height="678"
   id="namedview9"
   showgrid="false"
   inkscape:zoom="3.1714774"
   inkscape:cx="75.146662"
   inkscape:cy="57.784608"
   inkscape:window-x="1"
   inkscape:window-y="329"
   inkscape:window-maximized="0"
   inkscape:current-layer="Layer_1"
   fit-margin-top="0"
   fit-margin-left="0"
   fit-margin-right="0"
   fit-margin-bottom="0" />

<path
   inkscape:connector-curvature="0"
   style="fill:#072434;fill-opacity:1"
   d="m 131.99998,65.999978 c 0,36.450792 -29.54919,66.000002 -65.999985,66.000002 C 29.549205,131.99998 -2.6293943e-6,102.45077 -2.6293943e-6,65.999978 -2.6293943e-6,29.549187 29.549205,-1.894e-5 65.999995,-1.894e-5 c 36.450795,0 65.999985,29.54920594 65.999985,65.99999694 z"
   id="path3091-1" /><path
   style="fill:#ffffff;fill-opacity:1"
   d="M 92.40625 6.28125 C 88.521943 10.651233 94.455922 20.573564 86.75 21.96875 C 80.029671 22.082625 74.953876 9.598504 68.4375 16.0625 C 65.765709 22.211114 70.14493 29.416427 76.03125 31.9375 C 85.954534 37.159329 97.396196 34.842022 108.0625 34.46875 C 112.83179 34.729179 117.82406 33.049729 121.09375 29.6875 C 118.49463 25.751123 115.48394 22.129551 112.125 18.84375 C 109.20358 22.279759 106.18031 25.314389 102.96875 20.6875 C 101.37218 16.710404 100.61596 10.627457 97.1875 7.8125 C 96.356165 7.3661242 95.508445 6.942553 94.65625 6.53125 C 94.643729 6.5280214 94.63757 6.503166 94.625 6.5 C 93.953257 6.3308095 93.227336 6.2556509 92.40625 6.28125 z M 36.21875 7.09375 C 34.778111 7.8233607 33.377485 8.6077181 32 9.4375 C 31.952193 14.761149 33.368997 21.656735 26.6875 22.71875 C 23.195781 23.58308 21.103437 21.71263 19.28125 19.4375 C 16.109811 22.619572 13.253866 26.102399 10.78125 29.875 C 11.370254 30.261999 11.982863 30.605465 12.625 30.84375 C 15.434236 33.376985 27.972935 34.2447 21.875 39.40625 C 14.797852 43.221773 7.1989774 48.585692 5.59375 56.9375 C 5.5848056 62.755816 4.0600712 68.92472 6.625 74.5 C 10.745386 82.544903 20.346919 73.332558 16.84375 67 C 13.646931 61.796918 16.947258 50.479673 24.1875 56.0625 C 28.031533 59.879128 27.727737 65.487539 27.96875 70.375 C 28.444023 78.230576 20.23616 83.142904 13.1875 83.75 C 3.0879733 84.558552 12.999111 94.111235 13.09375 99.15625 C 13.366513 101.24179 13.25118 103.3117 13.03125 105.375 C 15.965475 109.31782 19.338145 112.89774 23.0625 116.09375 C 23.088323 115.59153 23.061439 115.08958 22.96875 114.59375 C 24.961412 108.43359 21.790471 100.8707 26.59375 95.625 C 34.208978 91.494754 37.541188 102.529 36.8125 108.21875 C 36.509574 114.08978 36.520191 127.55667 45.65625 124.28125 C 51.566043 119.85379 49.880881 111.01588 45.1875 106.375 C 42.107722 99.738945 49.62948 95.037414 53.625 91.03125 C 57.294966 83.773027 45.539096 85.53065 41.65625 82.96875 C 35.060364 77.566679 31.264256 67.683923 34.9375 59.625 C 37.438129 51.833484 45.105092 58.267663 43.75 64.09375 C 40.574528 69.358601 45.399721 81.218896 52.125 75.125 C 54.603197 70.751076 54.77249 65.298475 54.53125 60.34375 C 53.511762 55.320783 53.77807 48.920143 49 45.8125 C 42.890215 44.468876 37.132196 35.726967 45.65625 33.28125 C 51.402024 31.421557 59.076977 34.11229 63 28.1875 C 67.703641 22.89775 63.463395 10.825311 55.5 14.15625 C 52.938026 18.21505 47.694319 27.431447 42.5 20.96875 C 41.179466 16.537577 40.506572 9.4902241 36.21875 7.09375 z M 123.25 35.125 C 120.62847 35.727513 118.00278 36.330576 115.375 36.90625 C 106.81422 40.030701 97.542497 39.558512 88.65625 38.3125 C 80.864147 37.630706 72.389861 35.568079 64.9375 38.875 C 57.52418 41.763881 63.425004 49.424568 69.53125 47.6875 C 73.911186 47.917654 85.773904 46.169367 81.96875 53.09375 C 74.283331 56.867805 63.949938 57.638516 59.21875 65.71875 C 55.744718 73.669134 60.452564 82.342935 58.84375 90.59375 C 57.203134 101.69202 54.898571 114.81476 62.90625 124.15625 C 75.334822 120.59842 88.207216 121.65407 101 121.9375 C 105.71646 118.98038 110.02814 115.45424 113.84375 111.4375 C 109.33442 111.74485 104.66862 113.40458 101 110.5 C 96.099627 103.57294 106.13769 99.341956 111.65625 102.625 C 117.23213 105.23032 126.62537 98.930119 119.96875 93.9375 C 113.75855 90.379546 105.39039 97.091528 100.53125 90.4375 C 95.772189 83.524092 106.29972 82.266169 111.03125 83.8125 C 116.23125 85.795666 126.23608 80.818284 120.71875 75.1875 C 115.59795 71.910863 109.18785 75.319263 103.71875 73.1875 C 96.088915 69.251853 106.05035 64.852397 110.46875 66.65625 C 123.73746 63.62941 130.31096 46.359729 123.25 35.125 z M 105.09375 46.59375 C 107.34484 46.527923 109.54912 47.245352 110.90625 49.03125 C 113.90605 55.939895 102.06743 59.939867 97.28125 55.9375 C 94.863345 50.738303 100.14135 46.73857 105.09375 46.59375 z M 79.40625 64.375 C 84.564416 64.357643 90.343045 68.127578 87.53125 73.5625 L 68.0625 73.5625 C 67.994808 69.017498 72.585303 66.790874 76.0625 65 C 77.073182 64.563026 78.215904 64.379005 79.40625 64.375 z M 76.21875 81.84375 C 76.567918 81.82813 76.922446 81.831797 77.28125 81.84375 C 83.500525 82.050932 90.68568 86.33594 87.53125 92.8125 L 68.0625 92.8125 C 64.637249 88.524491 68.663742 83.285987 73.28125 82.375 C 74.175089 82.068346 75.171247 81.890611 76.21875 81.84375 z M 76.21875 101.0625 C 76.567918 101.04688 76.922446 101.05055 77.28125 101.0625 C 83.500525 101.26968 90.68568 105.55469 87.53125 112.03125 L 68.0625 112.03125 C 64.637249 107.74324 68.663742 102.50473 73.28125 101.59375 C 74.175089 101.2871 75.171247 101.10936 76.21875 101.0625 z "
   transform="translate(-2.6293943e-6,0)"
   id="path3091" /></svg>