<?xml version="1.0" encoding="UTF-8" standalone="no"?>
<svg
   xmlns:dc="http://purl.org/dc/elements/1.1/"
   xmlns:cc="http://creativecommons.org/ns#"
   xmlns:rdf="http://www.w3.org/1999/02/22-rdf-syntax-ns#"
   xmlns:svg="http://www.w3.org/2000/svg"
   xmlns="http://www.w3.org/2000/svg"
   xmlns:sodipodi="http://sodipodi.sourceforge.net/DTD/sodipodi-0.dtd"
   xmlns:inkscape="http://www.inkscape.org/namespaces/inkscape"
   version="1.1"
   id="Layer_1"
   x="0px"
   y="0px"
   width="132"
   height="131.99998"
   viewBox="0 0 131.99999 131.99998"
   xml:space="preserve"
   inkscape:version="0.48.2 r9819"
   sodipodi:docname="naginata-icon.svg"
   inkscape:export-filename="D:\checkouts-external\paazmaya-github\naginata.fi\favicon320.png"
   inkscape:export-xdpi="218.18184"
   inkscape:export-ydpi="218.18184"><metadata
   id="metadata13"><rdf:RDF><cc:Work
       rdf:about=""><dc:format>image/svg+xml</dc:format><dc:type
         rdf:resource="http://purl.org/dc/dcmitype/StillImage" /><dc:title></dc:title></cc:Work></rdf:RDF></metadata><defs
   id="defs11" /><sodipodi:namedview
   pagecolor="#ffffff"
   bordercolor="#666666"
   borderopacity="1"
   objecttolerance="10"
   gridtolerance="10"
   guidetolerance="10"
   inkscape:pageopacity="0"
   inkscape:pageshadow="2"
   inkscape:window-width="914"
   inkscape:window-height="678"
   id="namedview9"
   showgrid="false"
   inkscape:zoom="3.1714774"
   inkscape:cx="75.146662"
   inkscape:cy="57.784608"
   inkscape:window-x="1"
   inkscape:window-y="329"
   inkscape:window-maximized="0"
   inkscape:current-layer="Layer_1"
   fit-margin-top="0"
   fit-margin-left="0"
   fit-margin-right="0"
   fit-margin-bottom="0" />

<path
   inkscape:connector-curvature="0"
   style="fill:#072434;fill-opacity:1"
   d="m 131.99998,65.999978 c 0,36.450792 -29.54919,66.000002 -65.999985,66.000002 C 29.549205,131.99998 -2.6293943e-6,102.45077 -2.6293943e-6,65.999978 -2.6293943e-6,29.549187 29.549205,-1.894e-5 65.999995,-1.894e-5 c 36.450795,0 65.999985,29.54920594 65.999985,65.99999694 z"
   id="path3091-1" /><path
   style="fill:#ffffff;fill-opacity:1"
   d="M 92.766256,5.7923864 C 88.865926,10.180396 94.824384,20.14366 87.086674,21.544601 80.338621,21.658946 75.241888,9.1233247 68.698631,15.613986 c -2.682813,6.173978 1.714473,13.409015 7.625076,15.940488 9.964219,5.24337 21.45308,2.916504 32.163383,2.541692 4.78897,0.261503 9.80183,-1.424875 13.085,-4.800974 -2.60983,-3.952616 -5.63295,-7.589127 -9.00574,-10.888483 -2.93347,3.450183 -5.96921,6.497332 -9.19402,1.851356 -1.60315,-3.993502 -2.3625,-10.101543 -5.805099,-12.9281119 -0.834765,-0.4482173 -1.685982,-0.8735358 -2.541693,-1.2865355 -0.01257,-0.00324 -0.01875,-0.0282 -0.03138,-0.031378 C 94.319645,5.8421503 93.59073,5.7666817 92.766256,5.7923864 z M 36.346971,6.608238 c -1.446582,0.7326206 -2.852986,1.5202137 -4.236153,2.3534185 -0.048,5.3456105 1.374645,12.2696425 -5.334415,13.3360375 -3.506124,0.867896 -5.607098,-1.01027 -7.436803,-3.294786 -3.184521,3.1952 -6.052248,6.692394 -8.535064,10.480557 0.591433,0.388596 1.206569,0.733479 1.851355,0.972747 2.820826,2.543685 15.411249,3.41498 9.288159,8.597822 -7.106343,3.831263 -14.7365644,9.217309 -16.3484136,17.60357 -0.00899,5.842318 -1.5400056,12.03667 1.0355041,17.63495 4.1373835,8.078089 13.7785245,-1.172259 10.2609045,-7.530939 -3.210007,-5.224547 0.103935,-16.588478 7.374045,-10.982621 3.85989,3.832373 3.554841,9.46392 3.796848,14.371543 0.477234,7.887982 -7.764488,12.820574 -14.842225,13.430175 -10.1411902,0.811887 -0.189167,10.403977 -0.09414,15.469804 0.273888,2.094144 0.158079,4.172594 -0.06275,6.244404 2.946329,3.95908 6.332912,7.55377 10.07263,10.76297 0.02594,-0.5043 -0.0011,-1.00832 -0.09414,-1.50619 2.000882,-6.18558 -1.18314,-13.77966 3.639954,-19.047002 7.646642,-4.147283 10.992598,6.932482 10.260904,12.645702 -0.304175,5.89525 -0.293514,19.4177 8.880233,16.12876 5.934172,-4.44572 4.242059,-13.32009 -0.470684,-17.98012 -3.092483,-6.663426 4.460305,-11.384352 8.472307,-15.407042 3.685105,-7.288165 -8.119261,-5.523291 -12.018124,-8.095759 -6.623096,-5.424356 -10.434863,-15.34788 -6.746466,-23.440048 2.510944,-7.823657 10.209535,-1.362936 8.848853,4.487184 -3.188572,5.28657 1.656527,17.195791 8.409549,11.076756 2.48842,-4.391967 2.658411,-9.867061 2.416176,-14.842225 C 53.711321,55.034218 53.978727,48.607174 49.180947,45.486711 43.045957,44.137545 37.264185,35.359573 45.823403,32.903768 51.592879,31.036402 59.299493,33.738235 63.238699,27.789004 67.961744,22.477433 63.704006,10.355192 55.707761,13.699873 53.135218,17.775416 47.86988,27.029832 42.654133,20.540475 41.328151,16.091023 40.652481,9.0145982 36.346971,6.608238 z m 87.390279,28.146885 c -2.63235,0.604999 -5.26888,1.210549 -7.90749,1.788598 -8.5961,3.13734 -17.906068,2.663203 -26.828973,1.412052 -7.824247,-0.684608 -16.333491,-2.755743 -23.816594,0.56482 -7.443903,2.900798 -1.518736,10.593087 4.6127,8.848853 4.398004,0.231103 16.309658,-1.524396 12.488806,5.428552 -7.717122,3.789624 -18.093142,4.563514 -22.843848,12.677081 -3.488363,7.98318 1.238904,16.692763 -0.376547,24.977614 -1.647384,11.144057 -3.961454,24.320927 4.079258,33.700947 12.479843,-3.5725 25.405339,-2.51249 38.250898,-2.22789 4.73591,-2.96933 9.06539,-6.51001 12.89673,-10.54332 -4.52793,0.30861 -9.21298,1.9752 -12.89673,-0.94137 -4.920591,-6.95564 5.15888,-11.204072 10.70021,-7.90748 5.59888,2.61606 15.03087,-3.710128 8.34679,-8.723343 -6.23582,-3.572631 -14.6385,3.167039 -19.51769,-3.514438 -4.778689,-6.941927 5.79227,-8.20504 10.54332,-6.65233 5.22145,1.991348 15.26755,-3.006567 9.72747,-8.66058 -5.14194,-3.290153 -11.57848,0.132307 -17.07014,-2.00825 -7.661307,-3.951883 2.34122,-8.369487 6.77785,-6.558193 13.32344,-3.039326 19.92407,-20.380249 12.83398,-31.661323 z M 105.5061,46.271184 c 2.26037,-0.0661 4.47374,0.65429 5.83647,2.447556 3.01218,6.937144 -8.87528,10.953617 -13.681203,6.934739 -2.42788,-5.220645 2.871893,-9.236877 7.844733,-9.382295 z M 79.712628,64.125785 c 5.179445,-0.01743 10.981913,3.768059 8.158518,9.225401 l -19.549062,0 c -0.06797,-4.563751 4.541459,-6.799561 8.033001,-8.597822 1.014852,-0.438777 2.162287,-0.623557 3.357543,-0.627579 z M 76.51198,81.666598 c 0.350608,-0.01568 0.706598,-0.012 1.066882,0 6.244931,0.208036 13.459727,4.510721 10.292284,11.013999 l -19.549062,0 c -3.439382,-4.305699 0.603722,-9.565812 5.240278,-10.480557 0.897527,-0.307919 1.897793,-0.486388 2.949618,-0.533442 z m 0,19.298032 c 0.350608,-0.0157 0.706598,-0.0119 1.066882,0 6.244931,0.20804 13.459727,4.51072 10.292284,11.01399 l -19.549062,0 c -3.439382,-4.30569 0.603722,-9.56581 5.240278,-10.48055 0.897527,-0.30791 1.897793,-0.48638 2.949618,-0.53344 z"
   id="path3091"
   inkscape:connector-curvature="0" /></svg>