<?xml version="1.0" encoding="UTF-8" standalone="no"?>
<!-- Generator: Adobe Illustrator 15.0.2, SVG Export Plug-In . SVG Version: 6.00 Build 0)  -->

<svg
   xmlns:dc="http://purl.org/dc/elements/1.1/"
   xmlns:cc="http://creativecommons.org/ns#"
   xmlns:rdf="http://www.w3.org/1999/02/22-rdf-syntax-ns#"
   xmlns:svg="http://www.w3.org/2000/svg"
   xmlns="http://www.w3.org/2000/svg"
   xmlns:sodipodi="http://sodipodi.sourceforge.net/DTD/sodipodi-0.dtd"
   xmlns:inkscape="http://www.inkscape.org/namespaces/inkscape"
   version="1.1"
   id="Layer_1"
   x="0px"
   y="0px"
   width="132"
   height="131.99998"
   viewBox="0 0 131.99999 131.99998"
   xml:space="preserve"
   inkscape:version="0.48.2 r9819"
   sodipodi:docname="naginata-icon.svg"
   inkscape:export-filename="E:\github\naginata.fi\source\naginata-icon.png"
   inkscape:export-xdpi="10.909091"
   inkscape:export-ydpi="10.909091"><metadata
   id="metadata13"><rdf:RDF><cc:Work
       rdf:about=""><dc:format>image/svg+xml</dc:format><dc:type
         rdf:resource="http://purl.org/dc/dcmitype/StillImage" /><dc:title /></cc:Work></rdf:RDF></metadata><defs
   id="defs11" /><sodipodi:namedview
   pagecolor="#ffffff"
   bordercolor="#666666"
   borderopacity="1"
   objecttolerance="10"
   gridtolerance="10"
   guidetolerance="10"
   inkscape:pageopacity="0"
   inkscape:pageshadow="2"
   inkscape:window-width="1037"
   inkscape:window-height="724"
   id="namedview9"
   showgrid="false"
   inkscape:zoom="3.1714774"
   inkscape:cx="75.146662"
   inkscape:cy="57.784608"
   inkscape:window-x="543"
   inkscape:window-y="148"
   inkscape:window-maximized="0"
   inkscape:current-layer="Layer_1"
   fit-margin-top="0"
   fit-margin-left="0"
   fit-margin-right="0"
   fit-margin-bottom="0" />



<path
   transform="matrix(1.147363,0,0,1.2543205,-309.02324,-486.61014)"
   style="fill:#072434;fill-opacity:1"
   d="m 384.37986,440.56534 c 0,29.06019 -25.75401,52.61812 -57.5232,52.61812 -31.76919,0 -57.52321,-23.55793 -57.52321,-52.61812 0,-29.06019 25.75402,-52.61813 57.52321,-52.61813 31.76919,0 57.5232,23.55794 57.5232,52.61813 z"
   id="path3091" /><path
   style="fill:#ffffff;fill-rule:evenodd"
   d="m 32.34867,6.2797486 c 7.873415,-0.4022412 8.49701,9.1622344 10.14183,14.6815784 5.194319,6.462697 10.450372,-2.745011 13.012346,-6.803811 7.963395,-3.330939 12.20311,8.753344 7.499469,14.043094 -3.923023,5.92479 -11.593946,3.215686 -17.33972,5.075379 -8.524054,2.445717 -2.772566,11.181836 3.337219,12.52546 4.77807,3.107643 4.521538,9.511761 5.541026,14.534728 0.24124,4.954725 0.05422,10.408711 -2.423977,14.782635 -6.725279,6.093896 -11.529241,-5.759528 -8.353769,-11.024379 1.355092,-5.826087 -6.314046,-12.251034 -8.814675,-4.459518 -3.673244,8.058923 0.123371,17.9196 6.719257,23.321671 3.882846,2.5619 15.635731,0.829334 11.965765,8.087557 -3.99552,4.006164 -11.528786,8.681112 -8.449008,15.317167 4.693381,4.64088 6.368849,13.49621 0.459056,17.92367 -9.136059,3.27542 -9.131578,-10.18191 -8.828652,-16.05294 0.728688,-5.68975 -2.611826,-16.731338 -10.227054,-12.601092 -4.803279,5.245702 -1.611461,12.805402 -3.604123,18.965562 1.262611,6.75418 -9.218539,14.78187 -11.127748,5.27054 -0.843667,-6.92932 2.144556,-13.72057 1.231882,-20.698866 C 12.993155,94.123169 3.0967051,84.554928 13.196231,83.746376 20.244891,83.13928 28.456815,78.232496 27.981542,70.37692 27.740529,65.489459 28.025696,59.868914 24.181663,56.052286 16.941421,50.469459 13.650872,61.800646 16.847691,67.003728 20.35086,73.336286 10.739529,82.540485 6.6191436,74.495582 4.054215,68.920302 5.5807766,62.747717 5.589721,56.929401 7.1949482,48.577593 14.788099,43.226539 21.865247,39.411016 27.963182,34.249466 15.446578,33.382574 12.637342,30.849339 6.178366,28.45254 1.9156815,17.7649 9.433007,14.058542 c 8.535986,-3.676107 8.644001,10.803262 17.260876,8.670265 8.124768,-1.291421 4.293349,-11.222231 5.654852,-16.4490584 z"
   id="path3"
   inkscape:connector-curvature="0" /><path
   style="fill:#ffffff;fill-rule:evenodd"
   d="m 92.411173,6.2797486 c 7.807687,-0.2434213 8.399577,9.0156244 10.560207,14.3978114 5.12166,7.378763 9.74384,-4.715278 14.27267,-6.873046 6.56134,-2.238717 9.38637,6.398557 6.78953,11.175459 -2.24692,6.468273 -9.33391,9.850631 -15.9746,9.488014 -10.666304,0.373272 -22.105467,2.678868 -32.028751,-2.542961 -5.88632,-2.521073 -10.273626,-9.700687 -7.601835,-15.849301 6.516376,-6.4639954 11.589531,6.016136 18.30986,5.902261 7.705922,-1.395186 1.788612,-11.328255 5.672919,-15.6982374 z"
   id="path5"
   inkscape:connector-curvature="0" /><path
   style="fill:#ffffff;fill-rule:evenodd"
   d="m 123.25408,35.121132 c 7.06096,11.234729 0.48704,28.499389 -12.78167,31.526229 -4.4184,-1.803853 -14.371905,2.61351 -6.74207,6.549157 5.4691,2.131763 11.86392,-1.299128 16.98472,1.977509 5.51733,5.630784 -4.48669,10.621257 -9.68669,8.638091 -4.73153,-1.546331 -15.247171,-0.303572 -10.48811,6.609836 4.85914,6.654028 13.21591,-0.03477 19.42611,3.523184 6.65662,4.992619 -2.73906,11.291172 -8.31494,8.685852 -5.51856,-3.283044 -15.564383,0.94393 -10.66401,7.87099 5.29826,4.19482 12.66075,-1.16636 18.66755,1.83757 8.02075,3.93061 -1.09065,11.59978 -7.07218,9.50629 -16.536439,0.90115 -33.488448,-2.33093 -49.682061,2.30469 -8.007679,-9.34149 -5.706117,-22.44317 -4.065501,-33.541443 1.608814,-8.250815 -3.09994,-16.935581 0.374092,-24.885965 4.731188,-8.080234 15.077685,-8.854433 22.763104,-12.628488 3.805154,-6.924383 -8.049853,-5.181547 -12.429789,-5.411701 -6.106246,1.737068 -12.019692,-5.907533 -4.606372,-8.796414 7.452361,-3.306921 15.916223,-1.24082 23.708326,-0.559026 8.886247,1.246012 18.182311,1.717969 26.743091,-1.406482 2.62778,-0.575674 5.24487,-1.197366 7.8664,-1.799879 z M 97.281106,55.951021 c 4.786184,4.002367 16.612364,0.0032 13.612564,-6.905445 -4.34281,-5.714872 -17.129516,-0.657023 -13.612564,6.905445 z M 68.06151,73.576311 c 6.493243,0 12.986487,0 19.479731,0 3.460671,-6.689134 -6.095792,-10.896676 -11.486094,-8.566148 -3.477197,1.790874 -8.061329,4.021146 -7.993637,8.566148 z m 0,19.227589 c 6.493243,0 12.986487,0 19.479731,0 C 91.423616,84.83275 79.624954,80.190858 73.268767,82.371507 68.651259,83.282494 64.636259,88.515891 68.06151,92.8039 z m 0,19.22759 c 6.493243,0 12.986487,0 19.479731,0 3.882375,-7.97115 -7.916287,-12.613043 -14.272474,-10.43239 -4.617508,0.91098 -8.632508,6.14438 -5.207257,10.43239 z"
   id="path7"
   inkscape:connector-curvature="0" /></svg>